<?xml version="1.0" encoding="utf-8"?>
<?xml-stylesheet type="text/xsl" href="rss1.xsl"?>
<rss version="2.0" xmlns:atom="http://www.w3.org/2005/Atom" xmlns:content="http://purl.org/rss/1.0/modules/content/" xmlns:dc="http://purl.org/dc/elements/1.1/" xmlns:media="http://search.yahoo.com/mrss/">
<channel>
 <title>Getty</title>
 <link>http://www.gettyimg.com/</link>
 <atom:link href="http://www.gettyimg.com/" rel="self" type="application/rss+xml" />

 
                <item>
                <title><![CDATA[【UPSCALED】Alan Walker - Faded (Restrung) [4K AI Upscale HEVC 10-bit | PCM]]]></title>
                <link><![CDATA[https://sharemania.us/threads/alan-walker-faded-restrung-4k-ai-upscale-hevc-10-bit-pcm.223507/]]></link>
                <description><![CDATA[<article>
<blockquote class="messageText SelectQuoteContainer ugc baseHtml">
<b><img src="https://images2.imgbox.com/98/f9/WSnXrmK8_o.jpg" class="bbCodeImage LbImage" alt="[​IMG]" data-url="https://images2.imgbox.com/98/f9/WSnXrmK8_o.jpg" style=""> <br>
<img src="https://images2.imgbox.com/e4/18/jlDYH04j_o.jpg" class="bbCodeImage LbImage" alt="[​IMG]" data-url="https://images2.imgbox.com/e4/18/jlDYH04j_o.jpg" style=""> <br>
<br>
Genre: <span style="color: #0059b3">Pop, Classical</span> <br>
Style: <span style="color: #0059b3">Acoustic, Contemporary, Vocal</span> <br>
Year: <span style="color: #0059b3">2015</span> <br>
Video Source: <span style="color: #0059b3">Apple Music, thanks Brungor</span><br>
Audio Source: <span style="color: #0059b3">Qobuz, Faded album</span></b><br>
<br>
"<b>Faded (Restrung)</b>" is an alternate version of Alan Walker's famous song Faded featuring Iselin Solheim, released a few months after the release of the original version. It is an acoustic version of Faded, performed on piano and strings, eliminating all electronic elements.<br>
<br>
Alan Walker stated the following about this version of Faded: <i>"I wanted to make an alternate version to highlight other aspects of the song; to present it to another audience who might like Iselin's voice and the melodies, but can't stand the electronic parts of it. I'm greatly inspired by movie soundtrack producers such as Hans Zimmer, and because of this, I have always wanted to produce an orchestral version of my own. So instead of making the typical remix, my team and I produced and arranged this version of the track".</i><br>
<br>
The music video for "Faded (Restrung)" is directed by Rikkard Häggbom and Tobias Häggbom. Alan Walker stated: <i>"With the video for "Faded (Restrung)" we wanted to do a live session of the song, but we also wanted it to have a natural link to the official music video. This way, all the elements of the song are linked to each other and together they become a continuous story".</i><br>
<br>
<b>Release Info</b><br>
The video track is upscaled to 4K with Topaz Video AI and converted to HEVC 10-bit.<br>
The PCM track is lossless (Qobuz, CD quality), synced and edited with Adobe Audition.<br>
The timed lyrics are synced and edited to match the music video.<br>
Enable the subtitles to see the lyrics.<br>
<br>
<div class="ToggleTriggerAnchor bbCodeSpoilerContainer">
<button type="button" class="button bbCodeSpoilerButton ToggleTrigger Tooltip JsOnly" data-target="> .SpoilerTarget"><span>Spoiler: <span class="SpoilerTitle">Media Info</span></span></button>
<div class="SpoilerTarget bbCodeSpoilerText">
<div class="bbCodeBlock bbCodeCode">
<div class="type">Code:</div>
<pre>General
Unique ID                      : 264089295508675240093655104674031180244 (0xC6ADBF8B6D2B8684C6C4565512A799D4)
Complete name                  : Alan Walker - Faded (Restrung).mkv
Format                         : Matroska
Format version                 : Version 4 / Version 2
File size                      : 488 MiB
Duration                       : 4 min 13 s
Overall bit rate               : 16.2 Mb/s
Frame rate                     : 25.000 FPS
Encoded date                   : 2023-06-26 21:55:57 UTC
Writing application            : mkvmerge v76.0 ('Celebration') 64-bit
Writing library                : libebml v1.4.4 + libmatroska v1.7.1

Video
ID                             : 1
Format                         : HEVC
Format/Info                    : High Efficiency Video Coding
Format profile                 : Main 10@L5@Main
Codec ID                       : V_MPEGH/ISO/HEVC
Duration                       : 4 min 13 s
Bit rate                       : 14.5 Mb/s
Width                          : 3 840 pixels
Height                         : 2 160 pixels
Display aspect ratio           : 16:9
Original display aspect ratio  : 16:9
Frame rate mode                : Constant
Frame rate                     : 25.000 FPS
Color space                    : YUV
Chroma subsampling             : 4:2:0
Bit depth                      : 10 bits
Bits/(Pixel*Frame)             : 0.070
Stream size                    : 438 MiB (90%)
Default                        : Yes
Forced                         : No
Color range                    : Limited
Color primaries                : BT.709
Transfer characteristics       : BT.709
Matrix coefficients            : BT.709

Audio #1
ID                             : 2
Format                         : PCM
Format settings                : Little / Signed
Codec ID                       : A_PCM/INT/LIT
Duration                       : 4 min 13 s
Bit rate mode                  : Constant
Bit rate                       : 1 411.2 kb/s
Channel(s)                     : 2 channels
Sampling rate                  : 44.1 kHz
Frame rate                     : 25.000 FPS (1764 SPF)
Bit depth                      : 16 bits
Stream size                    : 42.6 MiB (9%)
Language                       : English
Default                        : Yes
Forced                         : No

Audio #2
ID                             : 3
Format                         : AAC LC
Format/Info                    : Advanced Audio Codec Low Complexity
Codec ID                       : A_AAC-2
Duration                       : 4 min 13 s
Bit rate                       : 257 kb/s
Channel(s)                     : 2 channels
Channel layout                 : L R
Sampling rate                  : 48.0 kHz
Frame rate                     : 46.875 FPS (1024 SPF)
Compression mode               : Lossy
Stream size                    : 7.75 MiB (2%)
Language                       : English
Default                        : No
Forced                         : No

Text
ID                             : 4
Format                         : UTF-8
Codec ID                       : S_TEXT/UTF8
Codec ID/Info                  : UTF-8 Plain Text
Duration                       : 3 min 5 s
Bit rate                       : 36 b/s
Frame rate                     : 0.242 FPS
Count of elements              : 45
Stream size                    : 843 Bytes (0%)
Title                          : Lyrics
Language                       : English
Default                        : No
Forced                         : No
</pre>
</div></div>
</div><br>
<div class="bbCodeBlock bbCodeVfcHH HiddenContent">
<div class="attribution type">Hidden Content:</div>
<blockquote>You must reply before you can see the hidden data contained here.</blockquote>
</div>
<div class="messageTextEndMarker">&nbsp;</div>
</blockquote>
</article>]]></description>
                <author><![CDATA[ADHDerby]]></author>
                </item>

                </channel></rss>